<svg width="1229" height="174" viewBox="0 0 1229 174" fill="none" xmlns="http://www.w3.org/2000/svg">
<path d="M0.728234 171V2.82308H70.1998C82.7911 2.82308 93.658 5.28661 102.8 10.2137C111.998 15.086 119.087 21.9017 124.069 30.661C129.051 39.3654 131.542 49.4933 131.542 61.0445C131.542 72.6504 128.996 82.8057 123.905 91.5101C118.868 100.16 111.669 106.866 102.308 111.629C92.9463 116.392 81.8331 118.773 68.968 118.773H26.1026V86.7473H61.4132C67.5446 86.7473 72.6633 85.6798 76.7692 83.5447C80.9298 81.4097 84.0776 78.4261 86.2127 74.5939C88.3478 70.707 89.4153 66.1905 89.4153 61.0445C89.4153 55.8437 88.3478 51.3546 86.2127 47.5772C84.0776 43.745 80.9298 40.7888 76.7692 38.7085C72.6085 36.6282 67.4899 35.588 61.4132 35.588H41.3765V171H0.728234ZM151.578 171V2.82308H221.05C233.641 2.82308 244.508 5.095 253.651 9.63885C262.848 14.1279 269.937 20.5879 274.919 29.0186C279.901 37.3946 282.392 47.3308 282.392 58.8273C282.392 70.488 279.846 80.3969 274.755 88.5539C269.663 96.6562 262.437 102.842 253.076 107.112C243.714 111.328 232.628 113.436 219.818 113.436H175.885V81.4097H212.263C218.395 81.4097 223.513 80.6159 227.619 79.0282C231.78 77.3859 234.928 74.9224 237.063 71.6377C239.198 68.2982 240.265 64.0281 240.265 58.8273C240.265 53.6265 239.198 49.329 237.063 45.9348C234.928 42.4859 231.78 39.9129 227.619 38.2158C223.459 36.4639 218.34 35.588 212.263 35.588H192.227V171H151.578ZM246.26 94.1379L288.14 171H243.796L202.738 94.1379H246.26ZM463.42 86.9115C463.42 105.415 459.862 121.1 452.745 133.965C445.628 146.83 435.993 156.602 423.839 163.281C411.741 169.96 398.164 173.299 383.109 173.299C367.999 173.299 354.395 169.932 342.297 163.199C330.198 156.465 320.59 146.693 313.473 133.883C306.411 121.018 302.88 105.361 302.88 86.9115C302.88 68.4077 306.411 52.7232 313.473 39.8581C320.59 26.993 330.198 17.221 342.297 10.5421C354.395 3.86324 367.999 0.523787 383.109 0.523787C398.164 0.523787 411.741 3.86324 423.839 10.5421C435.993 17.221 445.628 26.993 452.745 39.8581C459.862 52.7232 463.42 68.4077 463.42 86.9115ZM421.869 86.9115C421.869 75.9625 420.308 66.7106 417.188 59.1558C414.122 51.601 409.688 45.8801 403.885 41.9932C398.137 38.1063 391.211 36.1628 383.109 36.1628C375.061 36.1628 368.136 38.1063 362.333 41.9932C356.53 45.8801 352.069 51.601 348.948 59.1558C345.882 66.7106 344.349 75.9625 344.349 86.9115C344.349 97.8606 345.882 107.112 348.948 114.667C352.069 122.222 356.53 127.943 362.333 131.83C368.136 135.717 375.061 137.66 383.109 137.66C391.211 137.66 398.137 135.717 403.885 131.83C409.688 127.943 414.122 122.222 417.188 114.667C420.308 107.112 421.869 97.8606 421.869 86.9115ZM555.474 2.82308H595.547V119.102C595.493 129.996 592.892 139.522 587.746 147.679C582.6 155.781 575.483 162.077 566.396 166.566C557.363 171.055 546.906 173.299 535.027 173.299C524.516 173.299 514.963 171.465 506.368 167.797C497.827 164.129 491.012 158.436 485.92 150.717C480.884 142.998 478.393 133.116 478.448 121.072H518.932C519.096 125.397 519.917 129.093 521.395 132.158C522.928 135.169 525.036 137.441 527.718 138.974C530.401 140.507 533.603 141.273 537.326 141.273C541.213 141.273 544.498 140.452 547.18 138.81C549.863 137.113 551.888 134.622 553.257 131.337C554.68 128.052 555.419 123.974 555.474 119.102V2.82308ZM621.065 171V2.82308H738.329V35.8344H661.714V70.3238H732.335V103.417H661.714V137.989H738.329V171H621.065ZM916.442 63.7544H875.384C874.836 59.539 873.714 55.7342 872.017 52.34C870.32 48.9458 868.075 46.0443 865.283 43.6356C862.491 41.2268 859.179 39.3928 855.347 38.1337C851.57 36.8198 847.382 36.1628 842.783 36.1628C834.626 36.1628 827.591 38.161 821.679 42.1574C815.821 46.1538 811.305 51.9294 808.129 59.4842C805.009 67.0391 803.449 76.1815 803.449 86.9115C803.449 98.0795 805.036 107.441 808.211 114.996C811.441 122.496 815.958 128.162 821.761 131.994C827.619 135.772 834.544 137.66 842.537 137.66C847.026 137.66 851.104 137.085 854.772 135.936C858.495 134.786 861.752 133.116 864.544 130.927C867.391 128.682 869.718 125.972 871.524 122.797C873.385 119.567 874.672 115.926 875.384 111.875L916.442 112.122C915.731 119.567 913.568 126.903 909.955 134.129C906.397 141.356 901.497 147.952 895.256 153.92C889.015 159.832 881.406 164.54 872.427 168.044C863.504 171.547 853.267 173.299 841.715 173.299C826.496 173.299 812.865 169.96 800.821 163.281C788.832 156.547 779.361 146.748 772.408 133.883C765.456 121.018 761.979 105.361 761.979 86.9115C761.979 68.4077 765.51 52.7232 772.572 39.8581C779.634 26.993 789.188 17.221 801.231 10.5421C813.275 3.86324 826.77 0.523787 841.715 0.523787C851.898 0.523787 861.314 1.94716 869.964 4.79391C878.614 7.5859 886.223 11.6918 892.793 17.1115C899.362 22.4766 904.7 29.0734 908.806 36.9019C912.911 44.7305 915.457 53.6813 916.442 63.7544ZM934.2 35.8344V2.82308H1076.35V35.8344H1025.35V171H985.278V35.8344H934.2ZM1187.1 53.2433C1186.55 47.2213 1184.12 42.5406 1179.79 39.2012C1175.52 35.807 1169.42 34.1099 1161.48 34.1099C1156.23 34.1099 1151.85 34.7942 1148.34 36.1628C1144.84 37.5315 1142.21 39.4202 1140.46 41.829C1138.71 44.183 1137.8 46.8929 1137.75 49.9586C1137.64 52.4769 1138.13 54.6941 1139.23 56.6101C1140.38 58.5262 1142.02 60.2233 1144.15 61.7014C1146.34 63.1248 1148.97 64.3839 1152.04 65.4788C1155.1 66.5737 1158.55 67.5318 1162.38 68.353L1176.84 71.6377C1185.16 73.4443 1192.49 75.853 1198.85 78.864C1205.25 81.875 1210.62 85.4608 1214.94 89.6214C1219.32 93.782 1222.63 98.5722 1224.88 103.992C1227.12 109.412 1228.27 115.488 1228.33 122.222C1228.27 132.843 1225.59 141.958 1220.28 149.567C1214.97 157.177 1207.33 163.007 1197.37 167.058C1187.46 171.109 1175.5 173.135 1161.48 173.135C1147.41 173.135 1135.15 171.027 1124.69 166.812C1114.24 162.597 1106.11 156.191 1100.3 147.596C1094.5 139.001 1091.52 128.135 1091.35 114.996H1130.28C1130.61 120.416 1132.06 124.932 1134.63 128.545C1137.2 132.158 1140.73 134.896 1145.22 136.757C1149.77 138.618 1155.02 139.549 1160.99 139.549C1166.46 139.549 1171.12 138.81 1174.95 137.332C1178.84 135.854 1181.82 133.801 1183.9 131.173C1185.98 128.545 1187.05 125.534 1187.1 122.14C1187.05 118.965 1186.06 116.255 1184.15 114.01C1182.23 111.711 1179.27 109.74 1175.28 108.098C1171.34 106.401 1166.3 104.841 1160.17 103.417L1142.59 99.3113C1128.03 95.9719 1116.56 90.5795 1108.19 83.1341C1099.81 75.6341 1095.65 65.5062 1095.71 52.7506C1095.65 42.349 1098.44 33.234 1104.08 25.4054C1109.72 17.5769 1117.52 11.4728 1127.48 7.09321C1137.45 2.71359 1148.81 0.523787 1161.56 0.523787C1174.59 0.523787 1185.9 2.74096 1195.48 7.17531C1205.11 11.5549 1212.59 17.7138 1217.9 25.6518C1223.21 33.5898 1225.92 42.787 1226.03 53.2433H1187.1Z" fill="black"/>
</svg>
